<?xml version="1.0" encoding="utf-8"?>
<!-- Generator: Adobe Illustrator 16.0.0, SVG Export Plug-In . SVG Version: 6.00 Build 0)  -->
<!DOCTYPE svg PUBLIC "-//W3C//DTD SVG 1.1//EN" "http://www.w3.org/Graphics/SVG/1.1/DTD/svg11.dtd">
<svg version="1.1" xmlns="http://www.w3.org/2000/svg" xmlns:xlink="http://www.w3.org/1999/xlink" x="0px" y="0px"
	 width="960.555px" height="324.676px" viewBox="0 0 960.555 324.676" enable-background="new 0 0 960.555 324.676"
	 xml:space="preserve">
<g>
	<g>
		<path fill="#2D3F4C" d="M483.275,45.861h16.545v24.204h-5.286l-0.628-6.58c-2.321,3.977-7.181,7.129-13.872,7.129
			c-11.186,0-21.955-7.872-21.955-24.552c0-16.666,10.77-24.558,22.24-24.558c10.346,0,17.172,5.83,19.352,14.549l-5.983,1.707
			c-2.245-6.719-6.816-10.495-13.369-10.495c-9.079,0-15.84,6.379-15.84,18.797c0,12.411,6.761,18.79,15.84,18.79
			c8.517,0,13.015-5.546,13.587-13.229h-10.631V45.861z"/>
		<path fill="#2D3F4C" d="M480.277,4.783c-23.361,0-42.369,18.52-42.369,41.279c0,22.774,19.008,41.294,42.369,41.294
			c23.36,0,42.369-18.52,42.369-41.294C522.646,23.302,503.638,4.783,480.277,4.783 M480.277,92.125
			c-26.064,0-47.267-20.664-47.267-46.062C433.011,20.658,454.213,0,480.277,0c26.067,0,47.267,20.657,47.267,46.062
			C527.544,71.46,506.345,92.125,480.277,92.125"/>
		<path fill="#2D3F4C" d="M43.872,194.32h30.545v2.443c-3.374,0-5.661,0.333-6.865,0.992c-1.201,0.66-1.995,1.771-2.377,3.312
			c-0.378,1.548-0.569,5.282-0.569,11.217v7.337c-0.843-0.139-1.59-0.208-2.249-0.208c-2.683,0-6.195,0.798-10.551,2.395
			c-5.917,2.166-11.404,3.248-16.443,3.248c-10.134,0-18.561-3.241-25.28-9.738C3.366,208.813,0,200.581,0,190.606
			c0-9.87,3.207-18.519,9.614-25.953c6.399-7.427,15.107-11.141,26.116-11.141c9.464,0,17.291,3.395,23.489,10.183
			c1.148-2.374,1.881-4.942,2.197-7.69h2.509v23.052h-2.509c-1.01-7.087-3.769-12.702-8.277-16.84
			c-4.505-4.144-9.985-6.212-16.423-6.212c-6.653,0-12.446,2.415-17.392,7.226c-4.942,4.817-7.413,13.369-7.413,25.647
			c0,12.245,2.388,20.921,7.156,26.03c4.769,5.108,10.683,7.663,17.749,7.663c3.62,0,6.917-0.722,9.87-2.173
			c2.964-1.437,4.98-3.192,6.06-5.262c1.083-2.075,1.621-4.678,1.621-7.843c0-3.693-0.253-6.157-0.76-7.4
			c-0.503-1.235-1.277-2.068-2.318-2.491c-1.044-0.424-2.96-0.639-5.75-0.639h-1.666V194.32z"/>
		<path fill="#2D3F4C" d="M146.134,188.17c2.61-0.077,5.303-0.174,8.09-0.306c2.787-0.14,5.199-0.507,7.257-1.125
			c2.055-0.61,3.717-1.499,4.991-2.672c1.274-1.166,2.267-2.7,2.999-4.603c0.732-1.901,1.1-4.248,1.1-7.024
			c0-4.845-1.246-8.739-3.731-11.647c-2.489-2.922-7.913-4.38-16.267-4.38c-1.294,0-2.773,0.062-4.438,0.201V188.17z
			 M199.657,223.786h-19.061c-3.377-2.305-8.548-8.344-15.507-18.117c-2.231-3.116-4.546-6.115-6.951-8.981
			c-2.398-2.867-4.058-4.609-4.963-5.241c-0.899-0.624-2.308-0.943-4.227-0.943h-2.814v15.319c0,5.435,0.132,8.981,0.385,10.668
			c0.264,1.673,0.958,2.923,2.089,3.734c1.131,0.819,3.304,1.222,6.5,1.222h3.395v2.34h-33.891v-2.34h2.301
			c3.027,0,5.13-0.375,6.289-1.117c1.169-0.75,1.909-1.909,2.225-3.484c0.306-1.583,0.472-5.255,0.472-11.022v-33.839
			c0-5.497-0.167-9.037-0.472-10.634c-0.316-1.59-1.006-2.693-2.093-3.312c-1.076-0.604-3.408-0.909-6.993-0.909h-1.201v-2.346
			l10.124-0.507c6.757-0.306,12.119-0.458,16.09-0.458c6.757,0,12.244,0.61,16.472,1.832c4.237,1.215,7.652,3.221,10.266,6.005
			c2.61,2.776,3.912,6.107,3.912,9.975c0,4.512-1.704,8.356-5.116,11.55c-3.415,3.192-8.427,5.171-15.038,5.948
			c2.96,1.396,7.732,6.421,14.306,15.069c5.366,7.018,9.572,11.62,12.64,13.786c3.061,2.179,6.684,3.331,10.863,3.463V223.786z"/>
		<path fill="#2D3F4C" d="M285.781,196.055l-12.536-29.41l-12.48,29.41H285.781z M286.673,198.338h-26.897l-1.826,4.38
			c-2.717,6.345-4.078,10.481-4.078,12.418c0,2.069,0.725,3.638,2.166,4.714c1.447,1.062,3.3,1.596,5.567,1.596v2.34h-21.049v-2.34
			c3.13-0.479,5.466-1.548,7-3.234c1.531-1.673,3.374-5.213,5.536-10.606c0.174-0.507,1.01-2.478,2.509-5.906l20.574-47.881h2.03
			l23.663,54.808l3.234,7.226c0.732,1.625,1.711,2.909,2.946,3.839c1.236,0.93,3.096,1.521,5.571,1.756v2.34h-27.838v-2.34
			c3.415,0,5.719-0.242,6.917-0.742c1.201-0.486,1.801-1.465,1.801-2.916c0-0.749-0.798-2.978-2.398-6.67L286.673,198.338z"/>
		<path fill="#2D3F4C" d="M387.417,193.605l13.945-22.844c2.298-3.734,3.446-6.379,3.446-7.94c0-1.423-0.607-2.729-1.829-3.915
			s-3.395-1.777-6.525-1.777v-2.346h23.132v2.346c-3.204,0.438-5.786,1.604-7.753,3.484c-1.968,1.882-4.484,5.297-7.552,10.253
			l-15.868,25.8v9.156c0,5.872,0.184,9.613,0.548,11.224s1.149,2.749,2.346,3.408c1.201,0.659,3.558,0.992,7.077,0.992v2.34h-30.188
			v-2.34h1.149c3.026,0,5.129-0.375,6.299-1.117c1.163-0.75,1.902-1.909,2.214-3.484c0.319-1.583,0.472-5.255,0.472-11.022v-8.503
			l-17.648-28.237c-3.592-5.698-5.977-9.1-7.157-10.204c-1.183-1.104-3.304-1.687-6.372-1.749v-2.346h28.727v2.346
			c-5.362,0-8.048,1.181-8.048,3.554c0,0.958,0.892,2.854,2.662,5.706L387.417,193.605z"/>
		<path fill="#2D3F4C" d="M464.247,223.078v-22.191h2.613c2.957,14.452,9.971,21.685,21.049,21.685
			c4.977,0,8.829-1.389,11.567-4.151c2.729-2.763,4.096-5.858,4.096-9.294c0-3.457-1.197-6.358-3.609-8.69
			c-2.398-2.312-6.785-4.789-13.15-7.435c-5.682-2.373-9.961-4.456-12.848-6.239c-2.891-1.777-5.144-4.089-6.761-6.941
			c-1.625-2.853-2.43-5.88-2.43-9.107c0-4.914,1.75-9.017,5.244-12.293c3.499-3.269,7.934-4.907,13.289-4.907
			c2.999,0,5.813,0.479,8.465,1.423c2.642,0.951,5.355,2.915,8.143,5.907c1.604-1.867,2.51-3.887,2.714-6.06h2.298v18.061h-2.298
			c-1.325-5.254-3.665-9.392-7.021-12.41c-3.36-3.026-7.254-4.526-11.672-4.526c-4.213,0-7.302,1.104-9.271,3.332
			c-1.968,2.222-2.946,4.65-2.946,7.295c0,3.193,1.235,5.894,3.71,8.094c2.433,2.242,6.837,4.748,13.206,7.531
			c6.091,2.651,10.526,4.775,13.292,6.386c2.763,1.61,4.987,3.846,6.66,6.698c1.666,2.846,2.51,6.137,2.51,9.871
			c0,5.899-2.021,10.703-6.06,14.396c-4.04,3.7-9.44,5.546-16.194,5.546c-7.76,0-14.236-2.895-19.421-8.697
			c-1.152,1.597-2.006,3.839-2.562,6.72H464.247z"/>
		<path fill="#2D3F4C" d="M620.358,203.482l-0.527,20.311h-60.156v-2.347h2.086c3.026,0,5.126-0.375,6.299-1.117
			c1.163-0.75,1.909-1.909,2.238-3.484c0.337-1.583,0.5-5.255,0.5-11.022v-33.839c0-5.497-0.163-9.037-0.5-10.634
			c-0.329-1.597-1.027-2.7-2.086-3.312c-1.062-0.604-3.384-0.909-6.972-0.909h-1.565v-2.346h33.998v2.346h-3.138
			c-3.48,0-5.758,0.278-6.841,0.84c-1.075,0.556-1.801,1.597-2.165,3.131c-0.365,1.527-0.549,5.15-0.549,10.884v36.136
			c0,4.984,0.139,8.107,0.413,9.357c0.281,1.256,1.041,2.234,2.28,2.922c1.235,0.701,3.884,1.048,7.962,1.048h5.376
			c4.352,0,7.579-0.375,9.687-1.117c2.103-0.75,4.112-2.374,6.007-4.894c1.896-2.506,3.627-6.49,5.192-11.953H620.358z"/>
		<path fill="#2D3F4C" d="M707.151,196.055l-12.536-29.41l-12.48,29.41H707.151z M708.043,198.338h-26.896l-1.826,4.38
			c-2.714,6.345-4.074,10.481-4.074,12.418c0,2.069,0.722,3.638,2.162,4.714c1.451,1.062,3.301,1.596,5.57,1.596v2.34H661.93v-2.34
			c3.13-0.479,5.462-1.548,7-3.234c1.527-1.673,3.373-5.213,5.532-10.606c0.173-0.507,1.01-2.478,2.509-5.906l20.574-47.881h2.033
			l23.663,54.808l3.234,7.226c0.729,1.625,1.711,2.909,2.946,3.839c1.239,0.93,3.093,1.521,5.567,1.756v2.34h-27.838v-2.34
			c3.415,0,5.723-0.242,6.92-0.742c1.201-0.486,1.802-1.465,1.802-2.916c0-0.749-0.795-2.978-2.401-6.67L708.043,198.338z"/>
		<path fill="#2D3F4C" d="M799.39,189.891l21.622-18.978c5.019-4.38,7.518-7.496,7.518-9.356c0-2.818-2.499-4.297-7.518-4.429
			v-2.346h26.689v2.346c-2.197,0.035-4.401,0.486-6.612,1.375c-2.214,0.874-4.237,2.033-6.084,3.456
			c-1.843,1.424-5.275,4.429-10.286,9.003l-12.897,11.612l26.529,26.1c6.057,5.997,10.11,9.635,12.165,10.891
			c2.058,1.257,4.72,1.881,7.989,1.881v2.34H821.74v-2.34h1.413c3.963,0,6.438-0.319,7.409-0.965
			c0.982-0.646,1.465-1.443,1.465-2.395c0-1.423-2.523-4.595-7.572-9.517l-19.995-19.644l-5.07,4.324v12.571
			c0,5.428,0.139,8.981,0.413,10.668c0.288,1.673,0.989,2.916,2.124,3.734c1.124,0.819,3.294,1.222,6.497,1.222h1.36v2.34h-31.805
			v-2.34h2.197c3.026,0,5.119-0.375,6.288-1.117c1.166-0.75,1.913-1.909,2.249-3.484c0.33-1.583,0.497-5.255,0.497-11.022v-33.839
			c0-5.691-0.181-9.329-0.549-10.884c-0.364-1.562-1.09-2.617-2.173-3.158c-1.075-0.542-3.599-0.812-7.572-0.812v-2.346h31.336
			v2.346h-1.302c-3.48,0-5.765,0.278-6.841,0.84c-1.082,0.556-1.808,1.597-2.172,3.131c-0.368,1.527-0.549,5.15-0.549,10.884
			V189.891z"/>
		<path fill="#2D3F4C" d="M958.053,202.316h2.502l-1.514,21.47h-58.643v-2.34h1.461c3.513,0,5.793-0.458,6.816-1.374
			c1.027-0.923,1.68-2.075,1.961-3.484c0.277-1.402,0.416-4.998,0.416-10.766v-33.839c0-5.262-0.146-8.718-0.447-10.377
			c-0.291-1.659-0.972-2.825-2.033-3.491c-1.059-0.66-3.305-0.986-6.713-0.986v-2.346h50.602l1.666,17.2h-2.446
			c-1.114-4.817-2.481-8.232-4.1-10.252c-1.624-2.021-3.547-3.29-5.771-3.818c-2.231-0.527-5.816-0.784-10.755-0.784h-9.818v28.952
			h7.521c3.446,0,5.854-0.284,7.229-0.867c1.374-0.576,2.28-1.451,2.714-2.624c0.438-1.166,0.659-3.45,0.659-6.845h2.45v23.614
			h-2.45c0-3.831-0.34-6.399-0.996-7.704c-0.666-1.306-1.631-2.152-2.897-2.548c-1.274-0.389-3.426-0.583-6.452-0.583h-7.777v16.333
			c0,8.177,0.541,12.986,1.617,14.424c1.083,1.45,3.984,2.165,8.722,2.165h5.275c3.724,0,6.788-0.465,9.187-1.402
			c2.401-0.93,4.688-2.846,6.872-5.747C955.081,211.395,956.793,207.404,958.053,202.316"/>
	</g>
	<rect x="711.899" y="319.421" fill="#2D3F4C" width="49.539" height="2.617"/>
	<g>
		<path fill="#2D3F4C" d="M212.898,287.436l12.782,36.823h-5.893l-3.047-9.155h-13.154l-3.047,9.155h-5.893l12.782-36.823H212.898z
			 M205.321,309.634h9.683l-4.841-14.889L205.321,309.634z"/>
		<path fill="#2D3F4C" d="M275.542,287.436c8.836,0,16.937,5.998,16.937,18.408c0,12.418-8.101,18.415-16.937,18.415h-10.839
			v-36.823H275.542z M270.493,292.906v25.884h3.367c6.417,0,12.73-2.895,12.73-12.945c0-10.044-6.313-12.938-12.73-12.938H270.493z"
			/>
		<path fill="#2D3F4C" d="M340.391,324.259l-12.57-36.823h6.205l9.26,28.723l9.26-28.723h6.206l-12.571,36.823H340.391z"/>
		<path fill="#2D3F4C" d="M398.305,287.436h5.786v36.823h-5.786V287.436z"/>
		<path fill="#2D3F4C" d="M462.789,296.329c-1.472-2.791-3.314-4.055-5.47-4.055c-2.367,0-3.842,1.84-3.842,3.999
			c0,7.26,15.781,5.837,15.781,17.2c0,6.732-4.89,11.203-11.519,11.203c-6.469,0-10.835-4.366-12.151-10.252l4.734-2.999
			c1.052,4.103,3.21,7.781,7.417,7.781c3.314,0,5.629-2.263,5.629-5.525c0-7.205-15.677-5.622-15.677-16.985
			c0-5.58,4.262-9.683,9.627-9.683c5.05,0,8.204,2.734,10.151,6.212L462.789,296.329z"/>
		<path fill="#2D3F4C" d="M547.049,305.844c0,12.57-7.889,18.832-16.885,18.832s-16.885-6.262-16.885-18.832
			s7.889-18.831,16.885-18.831S547.049,293.274,547.049,305.844z M519.169,305.844c0,9.101,5.05,13.362,10.995,13.362
			s10.995-4.262,10.995-13.362c0-9.1-5.05-13.361-10.995-13.361S519.169,296.745,519.169,305.844z"/>
		<path fill="#2D3F4C" d="M602.225,307.316l10.627,16.943h-6.841l-10.36-16.52h-4.262v16.52h-5.785v-36.823h12.887
			c6.944,0,10.887,3.895,10.887,10.155C609.377,302.637,606.802,306.108,602.225,307.316z M603.487,297.591
			c0-3.263-2.051-4.686-4.841-4.686h-7.258v9.364h7.258C601.437,302.27,603.487,300.847,603.487,297.591z"/>
		<path fill="#2D3F4C" d="M667.444,296.329c-1.472-2.791-3.314-4.055-5.47-4.055c-2.367,0-3.842,1.84-3.842,3.999
			c0,7.26,15.78,5.837,15.78,17.2c0,6.732-4.89,11.203-11.519,11.203c-6.47,0-10.836-4.366-12.15-10.252l4.733-2.999
			c1.052,4.103,3.21,7.781,7.417,7.781c3.314,0,5.629-2.263,5.629-5.525c0-7.205-15.677-5.622-15.677-16.985
			c0-5.58,4.262-9.683,9.628-9.683c5.05,0,8.204,2.734,10.151,6.212L667.444,296.329z"/>
	</g>
	<g>
		<path fill="#2D3F4C" d="M715.533,288.325v16.104h8.246v3.332h-11.855v-19.436H715.533z"/>
		<path fill="#2D3F4C" d="M733.399,288.325v16.104h8.246v3.332H729.79v-19.436H733.399z"/>
		<path fill="#2D3F4C" d="M759.571,294.822c-0.749-1.972-2.11-3.388-4.804-3.388c-2.998,0-5.524,2.11-5.524,6.608
			s2.526,6.608,5.524,6.608c2.693,0,4.055-1.416,4.804-3.388l3.249,0.833c-0.917,3.721-3.832,5.887-8.053,5.887
			c-4.858,0-9.189-3.443-9.189-9.94s4.331-9.939,9.189-9.939c4.221,0,7.136,2.165,8.053,5.886L759.571,294.822z"/>
	</g>
</g>
</svg>
